<svg xmlns="http://www.w3.org/2000/svg" xmlns:xlink="http://www.w3.org/1999/xlink" width="500" zoomAndPan="magnify" viewBox="0 0 375 374.999991" height="500" preserveAspectRatio="xMidYMid meet" version="1.0"><defs><clipPath id="31e6174363"><path d="M 0.4375 0 L 328.289062 0 L 328.289062 374.453125 L 0.4375 374.453125 Z M 0.4375 0 " clip-rule="nonzero"/></clipPath><clipPath id="acd10c9768"><path d="M 164.5 62.644531 L 272.675781 62.644531 L 272.675781 312.277344 L 164.5 312.277344 Z M 164.5 62.644531 " clip-rule="nonzero"/></clipPath><clipPath id="2a21934d4f"><path d="M 55.800781 62.644531 L 163.976562 62.644531 L 163.976562 312.277344 L 55.800781 312.277344 Z M 55.800781 62.644531 " clip-rule="nonzero"/></clipPath><clipPath id="94a821aabf"><path d="M 1.28125 0.644531 L 108.976562 0.644531 L 108.976562 250.277344 L 1.28125 250.277344 Z M 1.28125 0.644531 " clip-rule="nonzero"/></clipPath><clipPath id="6d9f28ba7f"><rect x="0" width="109" y="0" height="251"/></clipPath><clipPath id="2f3ffead81"><rect x="0" width="329" y="0" height="375"/></clipPath></defs><g transform="matrix(1, 0, 0, 1, 23, 0)"><g clip-path="url(#2f3ffead81)"><g clip-path="url(#31e6174363)"><path fill="#00bf63" d="M 246.507812 28.910156 C 206.40625 28.128906 175.160156 7.296875 164.480469 0.00390625 C 153.804688 7.296875 122.558594 28.128906 82.457031 28.910156 C 38.449219 29.949219 10.847656 19.273438 0.429688 12.242188 L 0.429688 155.460938 C 0.429688 246.082031 70.738281 348.417969 164.480469 374.976562 C 211.355469 361.699219 252.496094 329.410156 281.660156 289.308594 C 310.824219 249.207031 328.53125 200.773438 328.53125 155.460938 L 328.53125 12.242188 C 318.117188 19.273438 290.515625 29.949219 246.507812 28.910156 Z M 310.824219 155.460938 C 310.824219 195.824219 294.941406 240.875 267.339844 278.890625 C 239.738281 316.910156 203.28125 344.25 164.480469 356.75 C 125.421875 344.511719 89.226562 316.910156 61.625 279.152344 C 34.023438 241.394531 18.136719 195.824219 18.136719 155.460938 L 18.136719 38.804688 C 37.148438 44.273438 56.9375 46.875 76.726562 46.617188 L 82.976562 46.617188 C 110.320312 45.835938 138.179688 36.980469 164.480469 20.835938 C 190.78125 36.980469 218.644531 45.835938 245.988281 46.355469 L 252.234375 46.355469 C 272.027344 46.617188 291.816406 44.011719 310.824219 38.542969 Z M 293.378906 60.9375 L 293.378906 155.460938 C 293.378906 192.4375 278.796875 233.582031 253.277344 268.476562 C 229.0625 301.546875 197.8125 326.023438 164.480469 338 C 131.152344 326.023438 99.902344 301.546875 75.6875 268.476562 C 50.167969 233.582031 35.585938 192.179688 35.585938 155.460938 L 35.585938 60.9375 C 49.125 63.28125 62.925781 64.324219 76.726562 64.324219 L 83.238281 64.324219 C 111.882812 63.28125 139.484375 55.46875 164.480469 41.40625 C 189.21875 55.46875 217.082031 63.28125 245.726562 64.324219 L 252.238281 64.324219 C 266.039062 64.324219 279.839844 63.019531 293.378906 60.9375 Z M 293.378906 60.9375 " fill-opacity="1" fill-rule="nonzero"/></g><g clip-path="url(#acd10c9768)"><path fill="#7ed957" d="M 218.550781 81.898438 C 191.847656 81.378906 171.042969 67.507812 163.933594 62.652344 C 156.824219 67.507812 136.015625 81.378906 109.3125 81.898438 C 80.011719 82.589844 61.632812 75.484375 54.695312 70.800781 L 54.695312 166.167969 C 54.695312 226.507812 101.511719 294.652344 163.933594 312.335938 C 195.144531 303.492188 222.539062 281.992188 241.960938 255.289062 C 261.378906 228.589844 273.171875 196.335938 273.171875 166.167969 L 273.171875 70.800781 C 266.234375 75.484375 247.855469 82.589844 218.550781 81.898438 Z M 261.378906 166.167969 C 261.378906 193.042969 250.800781 223.039062 232.421875 248.355469 C 214.042969 273.671875 189.769531 291.875 163.933594 300.199219 C 137.921875 292.050781 113.824219 273.671875 95.441406 248.527344 C 77.0625 223.386719 66.484375 193.042969 66.484375 166.167969 L 66.484375 88.488281 C 79.144531 92.128906 92.320312 93.863281 105.5 93.6875 L 109.660156 93.6875 C 127.867188 93.167969 146.421875 87.273438 163.933594 76.523438 C 181.445312 87.273438 200 93.167969 218.203125 93.515625 L 222.367188 93.515625 C 235.542969 93.6875 248.722656 91.953125 261.378906 88.3125 Z M 249.761719 103.226562 L 249.761719 166.167969 C 249.761719 190.789062 240.050781 218.183594 223.058594 241.417969 C 206.933594 263.441406 186.128906 279.738281 163.933594 287.714844 C 141.738281 279.738281 120.929688 263.441406 104.804688 241.417969 C 87.8125 218.183594 78.101562 190.613281 78.101562 166.167969 L 78.101562 103.226562 C 87.121094 104.785156 96.308594 105.480469 105.5 105.480469 L 109.835938 105.480469 C 128.90625 104.785156 147.285156 99.585938 163.933594 90.222656 C 180.40625 99.585938 198.957031 104.785156 218.03125 105.480469 L 222.367188 105.480469 C 231.554688 105.480469 240.746094 104.613281 249.761719 103.226562 Z M 249.761719 103.226562 " fill-opacity="1" fill-rule="nonzero"/></g><g clip-path="url(#2a21934d4f)"><g transform="matrix(1, 0, 0, 1, 55, 62)"><g clip-path="url(#6d9f28ba7f)"><g clip-path="url(#94a821aabf)"><path fill="#4ca626" d="M 55.445312 19.898438 C 82.144531 19.378906 102.953125 5.507812 110.0625 0.652344 C 117.171875 5.507812 137.980469 19.378906 164.679688 19.898438 C 193.984375 20.589844 212.363281 13.484375 219.300781 8.800781 L 219.300781 104.167969 C 219.300781 164.507812 172.484375 232.652344 110.0625 250.335938 C 78.851562 241.492188 51.457031 219.992188 32.035156 193.289062 C 12.617188 166.589844 0.824219 134.335938 0.824219 104.167969 L 0.824219 8.800781 C 7.761719 13.484375 26.140625 20.589844 55.445312 19.898438 Z M 12.617188 104.167969 C 12.617188 131.042969 23.191406 161.039062 41.574219 186.355469 C 59.953125 211.671875 84.226562 229.875 110.0625 238.199219 C 136.070312 230.050781 160.171875 211.671875 178.550781 186.527344 C 196.933594 161.386719 207.507812 131.042969 207.507812 104.167969 L 207.507812 26.488281 C 194.851562 30.128906 181.671875 31.863281 168.496094 31.6875 L 164.335938 31.6875 C 146.128906 31.167969 127.574219 25.273438 110.0625 14.523438 C 92.550781 25.273438 73.996094 31.167969 55.789062 31.515625 L 51.628906 31.515625 C 38.453125 31.6875 25.273438 29.953125 12.617188 26.3125 Z M 24.234375 41.226562 L 24.234375 104.167969 C 24.234375 128.789062 33.941406 156.183594 50.9375 179.417969 C 67.0625 201.441406 87.867188 217.738281 110.0625 225.714844 C 132.257812 217.738281 153.0625 201.441406 169.191406 179.417969 C 186.183594 156.183594 195.890625 128.613281 195.890625 104.167969 L 195.890625 41.226562 C 186.875 42.785156 177.6875 43.480469 168.496094 43.480469 L 164.160156 43.480469 C 145.089844 42.785156 126.707031 37.585938 110.0625 28.222656 C 93.589844 37.585938 75.039062 42.785156 55.964844 43.480469 L 51.628906 43.480469 C 42.4375 43.480469 33.25 42.613281 24.234375 41.226562 Z M 24.234375 41.226562 " fill-opacity="1" fill-rule="nonzero"/></g></g></g></g></g></g></svg>